<?xml version="1.0"?>
<svg width="56" height="48" xmlns="http://www.w3.org/2000/svg" xmlns:svg="http://www.w3.org/2000/svg" version="1.1">

 <g class="layer">
  <title>Layer 1</title>
  <g class="am-weather-sun" id="svg_1">
   <line fill="none" id="svg_2" stroke="#ffa500" stroke-linecap="round" stroke-width="2" transform="translate(0 9)" x1="28.2" x2="28.2" y1="23.27" y2="26.27"/>
   <g id="svg_3" transform="rotate(45 28.1951 23.2683)">
    <line fill="none" id="svg_4" stroke="#ffa500" stroke-linecap="round" stroke-width="2" transform="translate(0 9)" x1="28.2" x2="28.2" y1="23.27" y2="26.27"/>
   </g>
   <g id="svg_5" transform="rotate(90 28.1951 23.2683)">
    <line fill="none" id="svg_6" stroke="#ffa500" stroke-linecap="round" stroke-width="2" transform="translate(0 9)" x1="28.2" x2="28.2" y1="23.27" y2="26.27"/>
   </g>
   <g id="svg_7" transform="rotate(135 28.1951 23.2683)">
    <line fill="none" id="svg_8" stroke="#ffa500" stroke-linecap="round" stroke-width="2" transform="translate(0 9)" x1="28.2" x2="28.2" y1="23.27" y2="26.27"/>
   </g>
   <g id="svg_9" transform="translate(16 14) scale(-1 -1)">
    <line fill="none" id="svg_10" stroke="#ffa500" stroke-linecap="round" stroke-width="2" transform="translate(0 9)" x1="-12.2" x2="-12.2" y1="-9.27" y2="-6.27"/>
   </g>
   <g id="svg_11" transform="rotate(225 28.1951 23.2683)">
    <line fill="none" id="svg_12" stroke="#ffa500" stroke-linecap="round" stroke-width="2" transform="translate(0 9)" x1="28.2" x2="28.2" y1="23.27" y2="26.27"/>
   </g>
   <g id="svg_13" transform="rotate(-90 28.1951 23.2683)">
    <line fill="none" id="svg_14" stroke="#ffa500" stroke-linecap="round" stroke-width="2" transform="translate(0 9)" x1="28.2" x2="28.2" y1="23.27" y2="26.27"/>
   </g>
   <g id="svg_15" transform="rotate(-45 28.1951 23.2683)">
    <line fill="none" id="svg_16" stroke="#ffa500" stroke-linecap="round" stroke-width="2" transform="translate(0 9)" x1="28.2" x2="28.2" y1="23.27" y2="26.27"/>
   </g>
   <circle cx="28.2" cy="23.27" fill="#ffa500" id="svg_17" r="5" stroke="#ffa500" stroke-width="2"/>
  </g>
 </g>
</svg>